#!OML:ASF H:\LiuWeirdWalks\Patient Classification 1\Patient 1\Session 1\male.ASF
:FULLY-SPECIFIED
:DEGREES
884
root 0.155551 18.2563 8.798 1.52682 5.58199 2.26957
lowerback 10.1573 -0.421004 3.59075
upperback 2.87247 0.0138174 5.81631
thorax -2.70366 -0.000311118 4.04242
lowerneck -21.6368 -0.0723491 1.57659
upperneck 30.2119 2.87993 -10.3387
head 14.1927 -0.0263728 -3.94679
rclavicle 6.75868e-015 0
rhumerus -23.8287 -33.6974 -9.05488
rradius 27.4012
rwrist 0.650803
rhand -22.8024 -7.09031
rfingers 7.12502
rthumb 3.63394 -37.0391
lclavicle 6.75868e-015 0
lhumerus -20.1303 27.7174 11.6855
lradius 33.7945
lwrist 0.134361
lhand -18.4192 3.60343
lfingers 7.12502
lthumb 7.86578 33.4371
rfemur -2.52946 1.35264 18.3104
rtibia 23.6319
rfoot -13.3617 -25.7622
rtoes -0.158505
lfemur -22.5493 0.710577 -14.2321
ltibia 31.1143
lfoot -8.17569 8.4239
ltoes -17.3165
885
root 0.172768 18.2537 8.85157 1.49421 5.4959 2.13696
lowerback 10.1932 -0.40418 3.66769
upperback 2.88433 0.0470337 5.85407
thorax -2.71246 0.0159103 4.0352
lowerneck -21.6085 -0.0425864 1.63696
upperneck 30.1659 2.91858 -10.4046
head 14.1719 -0.0102709 -3.97478
rclavicle 3.02153e-014 -3.81667e-014
rhumerus -23.8258 -33.7133 -9.0861
rradius 27.4017
rwrist 0.626501
rhand -22.8176 -7.04758
rfingers 7.12502
rthumb 3.61928 -36.9966
lclavicle 3.02153e-014 -3.81667e-014
lhumerus -20.2181 27.8669 11.6098
lradius 33.7693
lwrist -0.051242
lhand -18.396 3.37968
lfingers 7.12502
lthumb 7.88818 33.2125
rfemur -2.16715 1.40962 18.4302
rtibia 23.3132
rfoot -13.319 -25.8025
rtoes -0.16294
lfemur -22.751 0.778071 -14.1614
ltibia 30.4218
lfoot -8.14186 8.77083
ltoes -17.2956
886
root 0.190838 18.2508 8.90627 1.45856 5.41428 1.99576
lowerback 10.2359 -0.387892 3.7445
upperback 2.88417 0.0812986 5.90049
thorax -2.73759 0.0326023 4.03733
lowerneck -21.5655 -0.0132434 1.68736
upperneck 30.1365 2.9597 -10.4643
head 14.1552 0.00669643 -3.99865
rclavicle 3.18055e-015 -2.8625e-014
rhumerus -23.8315 -33.5631 -9.13195
rradius 27.4567
rwrist 0.452758
rhand -22.8612 -7.09999
rfingers 7.12502
rthumb 3.57713 -37.0497
lclavicle 3.18055e-015 -2.8625e-014
lhumerus -20.3006 28.0276 11.5506
lradius 33.746
lwrist -0.26227
lhand -18.3556 3.16476
lfingers 7.12502
lthumb 7.92716 32.9961
rfemur -1.78813 1.46967 18.5592
rtibia 22.9783
rfoot -13.2634 -25.851
rtoes -0.177105
lfemur -22.9371 0.828169 -14.0799
ltibia 29.7356
lfoot -8.10592 9.11213
ltoes -17.2763
887
root 0.209948 18.2478 8.96235 1.42112 5.33602 1.84928
lowerback 10.2753 -0.37188 3.82473
upperback 2.88634 0.115247 5.94761
thorax -2.75839 0.0491299 4.03823
lowerneck -21.5487 0.00753699 1.70541
upperneck 30.1318 2.98954 -10.4839
head 14.1528 0.0194639 -4.00408
rclavicle -1.59028e-015 3.18055e-015
rhumerus -23.8395 -33.4544 -9.16385
rradius 27.5013
rwrist 0.317104
rhand -22.9023 -7.14758
rfingers 7.12502
rthumb 3.53743 -37.098
lclavicle -1.59028e-015 3.18055e-015
lhumerus -20.3784 28.1521 11.5098
lradius 33.7591
lwrist -0.408161
lhand -18.3259 3.03952
lfingers 7.12502
lthumb 7.95577 32.8698
rfemur -1.39416 1.52945 18.6919
rtibia 22.6297
rfoot -13.1949 -25.9039
rtoes -0.208045
lfemur -23.109 0.852554 -13.989
ltibia 29.06
lfoot -8.06896 9.44712
ltoes -17.2766
888
root 0.230043 18.2443 9.01973 1.38104 5.272 1.70117
lowerback 10.3001 -0.357159 3.91278
upperback 2.89868 0.146449 5.9936
thorax -2.76028 0.0643497 4.03353
lowerneck -21.5675 0.0193113 1.7006
upperneck 30.1468 3.00846 -10.4779
head 14.1651 0.0271769 -3.99855
rclavicle -1.47101e-014 -2.54444e-014
rhumerus -23.8512 -33.3316 -9.19743
rradius 27.557
rwrist 0.136372
rhand -22.9696 -7.25793
rfingers 7.12502
rthumb 3.47243 -37.2094
lclavicle -1.47101e-014 -2.54444e-014
lhumerus -20.4402 28.206 11.5047
lradius 33.8281
lwrist -0.417486
lhand -18.3298 3.10047
lfingers 7.12502
lthumb 7.95206 32.9309
rfemur -0.987478 1.5829 18.8252
rtibia 22.2787
rfoot -13.124 -25.9654
rtoes -0.253271
lfemur -23.2694 0.847334 -13.8927
ltibia 28.4008
lfoot -8.04539 9.76403
ltoes -17.2995
889
root 0.250842 18.2404 9.0776 1.34507 5.21251 1.55638
lowerback 10.3243 -0.339763 3.99748
upperback 2.91197 0.180716 6.03781
thorax -2.76094 0.0811145 4.02843
lowerneck -21.5718 0.0353413 1.73128
upperneck 30.102 3.02587 -10.5059
head 14.1489 0.0350593 -4.01005
rclavicle -3.57812e-015 6.36111e-015
rhumerus -23.8836 -33.2638 -9.20541
rradius 27.6023
rwrist 0.0376928
rhand -23.024 -7.31779
rfingers 7.12502
rthumb 3.41997 -37.2701
lclavicle -3.57812e-015 6.36111e-015
lhumerus -20.5023 28.2203 11.5133
lradius 33.9283
lwrist -0.422093
lhand -18.3171 3.20009
lfingers 7.12502
lthumb 7.96433 33.03
rfemur -0.584838 1.6362 18.9532
rtibia 21.9326
rfoot -13.0462 -26.0304
rtoes -0.319943
lfemur -23.4283 0.819751 -13.7948
ltibia 27.7603
lfoot -8.02837 10.0675
ltoes -17.3362
890
root 0.272292 18.2359 9.13502 1.31835 5.1388 1.40705
lowerback 10.3572 -0.314786 4.08364
upperback 2.91838 0.226434 6.08231
thorax -2.77404 0.103491 4.02154
lowerneck -21.5826 0.0356411 1.72142
upperneck 30.0877 3.02604 -10.4973
head 14.1448 0.0351098 -4.00411
rclavicle -1.19271e-015 6.36111e-015
rhumerus -23.923 -33.2364 -9.19773
rradius 27.6306
rwrist -0.00659408
rhand -23.0685 -7.36504
rfingers 7.12502
rthumb 3.37699 -37.318
lclavicle -1.19271e-015 6.36111e-015
lhumerus -20.5578 28.1955 11.5357
lradius 34.0378
lwrist -0.383609
lhand -18.3181 3.31652
lfingers 7.12502
lthumb 7.9633 33.1465
rfemur -0.204099 1.70394 19.084
rtibia 21.5994
rfoot -12.9602 -26.0935
rtoes -0.413083
lfemur -23.5927 0.783666 -13.6845
ltibia 27.1403
lfoot -8.01093 10.3638
ltoes -17.3572
891
root 0.295055 18.231 9.19275 1.28809 5.07096 1.2633
lowerback 10.392 -0.29714 4.16361
upperback 2.92947 0.26153 6.12304
thorax -2.7828 0.120621 4.01549
lowerneck -21.5836 0.0589652 1.78116
upperneck 30.0312 3.0488 -10.5458
head 14.124 0.0461645 -4.02757
rclavicle 2.18663e-014 3.81667e-014
rhumerus -23.9536 -33.2251 -9.20515
rradius 27.6539
rwrist -0.0346997
rhand -23.1235 -7.38579
rfingers 7.12502
rthumb 3.32384 -37.3396
lclavicle 2.18663e-014 3.81667e-014
lhumerus -20.6043 28.2087 11.5441
lradius 34.1051
lwrist -0.371618
lhand -18.3256 3.42065
lfingers 7.12502
lthumb 7.95605 33.2509
rfemur 0.176805 1.75273 19.2007
rtibia 21.2807
rfoot -12.8752 -26.1395
rtoes -0.536979
lfemur -23.7443 0.726805 -13.577
ltibia 26.5404
lfoot -8.0007 10.6499
ltoes -17.3458
892
root 0.319254 18.2262 9.25089 1.26461 4.99742 1.13033
lowerback 10.4209 -0.280318 4.23361
upperback 2.9358 0.294279 6.16062
thorax -2.79318 0.136585 4.01197
lowerneck -21.5755 0.0818513 1.83696
upperneck 29.9915 3.0734 -10.593
head 14.1089 0.0576706 -4.05025
rclavicle 3.1408e-014 -5.56597e-014
rhumerus -23.9868 -33.2422 -9.20195
rradius 27.6658
rwrist 0.012592
rhand -23.1319 -7.40472
rfingers 7.12502
rthumb 3.31574 -37.3587
lclavicle 3.1408e-014 -5.56597e-014
lhumerus -20.6464 28.2077 11.546
lradius 34.1416
lwrist -0.339752
lhand -18.3464 3.44683
lfingers 7.12502
lthumb 7.93603 33.2779
rfemur 0.544672 1.77754 19.2923
rtibia 20.9776
rfoot -12.8023 -26.152
rtoes -0.67553
lfemur -23.8892 0.651475 -13.4767
ltibia 25.9591
lfoot -7.98885 10.9338
ltoes -17.3175
893
root 0.34488 18.221 9.31005 1.23406 4.91873 0.996663
lowerback 10.4474 -0.268806 4.30522
upperback 2.95136 0.319109 6.19413
thorax -2.7922 0.148667 4.00412
lowerneck -21.5687 0.11453 1.91675
upperneck 29.9536 3.10713 -10.6513
head 14.0961 0.0743192 -4.08031
rclavicle -2.78299e-015 -3.33958e-014
rhumerus -23.9972 -33.3464 -9.20265
rradius 27.6411
rwrist 0.132448
rhand -23.1117 -7.36728
rfingers 7.12502
rthumb 3.33519 -37.3209
lclavicle -2.78299e-015 -3.33958e-014
lhumerus -20.6689 28.333 11.5236
lradius 34.1045
lwrist -0.423403
lhand -18.3406 3.36711
lfingers 7.12502
lthumb 7.94159 33.1979
rfemur 0.918025 1.78836 19.3745
rtibia 20.6864
rfoot -12.7452 -26.1405
rtoes -0.827612
lfemur -24.0095 0.554348 -13.3684
ltibia 25.3957
lfoot -7.98033 11.2148
ltoes -17.2704
894
root 0.372017 18.2157 9.37023 1.20559 4.83699 0.875522
lowerback 10.4751 -0.260115 4.36566
upperback 2.96076 0.339478 6.22334
thorax -2.79819 0.158508 3.99866
lowerneck -21.5716 0.141293 1.96667
upperneck 29.9519 3.13719 -10.6807
head 14.1 0.0889978 -4.09597
rclavicle -2.06736e-014 1.43125e-014
rhumerus -23.9997 -33.4638 -9.20298
rradius 27.6048
rwrist 0.284237
rhand -23.0658 -7.31296
rfingers 7.12502
rthumb 3.37959 -37.2659
lclavicle -2.06736e-014 1.43125e-014
lhumerus -20.7226 28.3918 11.4929
lradius 34.094
lwrist -0.438553
lhand -18.339 3.27713
lfingers 7.12502
lthumb 7.94313 33.1079
rfemur 1.28818 1.78123 19.4313
rtibia 20.4076
rfoot -12.7139 -26.1032
rtoes -0.971588
lfemur -24.1124 0.439361 -13.2678
ltibia 24.8514
lfoot -7.97255 11.4852
ltoes -17.2081
